<svg xmlns="http://www.w3.org/2000/svg" viewBox="0 0 96 96" role="img" aria-label="Doctor avatar">
  <defs>
    <linearGradient id="bg" x1="12" y1="8" x2="86" y2="92" gradientUnits="userSpaceOnUse">
      <stop stop-color="#fdf2f8"/>
      <stop offset="1" stop-color="#fbcfe8"/>
    </linearGradient>
    <linearGradient id="coat" x1="23" y1="56" x2="73" y2="94" gradientUnits="userSpaceOnUse">
      <stop stop-color="#ffffff"/>
      <stop offset="1" stop-color="#fce7f3"/>
    </linearGradient>
  </defs>
  <rect width="96" height="96" rx="24" fill="url(#bg)"/>
  <circle cx="48" cy="42" r="24" fill="#581c36"/>
  <path d="M23 89c2-20 13-31 25-31s23 11 25 31H23Z" fill="url(#coat)"/>
  <path d="M38 58h20l-3 13-7 6-7-6-3-13Z" fill="#e0a88a"/>
  <circle cx="48" cy="43" r="17" fill="#f3c0a3"/>
  <path d="M31 40c5-17 20-22 34-10 0 8-2 14-7 17-7-7-16-9-27-7Z" fill="#581c36"/>
  <circle cx="42" cy="45" r="2" fill="#12233f"/>
  <circle cx="54" cy="45" r="2" fill="#12233f"/>
  <path d="M42 53c4 4 9 4 13 0" fill="none" stroke="#9d174d" stroke-width="2" stroke-linecap="round"/>
  <path d="M32 71l11 16 5-10 5 10 11-16" fill="none" stroke="#f9a8d4" stroke-width="3" stroke-linecap="round" stroke-linejoin="round"/>
  <circle cx="69" cy="31" r="9" fill="#ffffff" opacity=".7"/>
</svg>
