<svg xmlns="http://www.w3.org/2000/svg" viewBox="0 0 96 96" role="img" aria-label="Doctor avatar">
  <defs>
    <linearGradient id="bg" x1="12" y1="10" x2="86" y2="90" gradientUnits="userSpaceOnUse">
      <stop stop-color="#ecfdf5"/>
      <stop offset="1" stop-color="#a7f3d0"/>
    </linearGradient>
    <linearGradient id="coat" x1="24" y1="56" x2="72" y2="94" gradientUnits="userSpaceOnUse">
      <stop stop-color="#ffffff"/>
      <stop offset="1" stop-color="#dbeafe"/>
    </linearGradient>
  </defs>
  <rect width="96" height="96" rx="24" fill="url(#bg)"/>
  <path d="M28 42c0-16 10-27 21-27 13 0 22 10 22 27v5H28v-5Z" fill="#172554"/>
  <path d="M23 89c2-20 13-31 25-31s23 11 25 31H23Z" fill="url(#coat)"/>
  <path d="M39 58h19l-3 12-7 6-6-6-3-12Z" fill="#d8a27f"/>
  <circle cx="48" cy="42" r="17" fill="#f0bd99"/>
  <path d="M31 38c7-13 21-18 35-6 1 5 0 9-2 13-9-5-22-7-33-7Z" fill="#172554"/>
  <circle cx="42" cy="44" r="2" fill="#12233f"/>
  <circle cx="54" cy="44" r="2" fill="#12233f"/>
  <path d="M42 53c4 3 8 3 12 0" fill="none" stroke="#7c2d12" stroke-width="2" stroke-linecap="round"/>
  <path d="M31 71l12 16 5-10 5 10 12-16" fill="none" stroke="#9cc7dd" stroke-width="3" stroke-linecap="round" stroke-linejoin="round"/>
  <circle cx="70" cy="28" r="8" fill="#ffffff" opacity=".7"/>
</svg>
