<svg xmlns="http://www.w3.org/2000/svg" viewBox="0 0 96 96" role="img" aria-label="Doctor avatar">
  <defs>
    <linearGradient id="bg" x1="12" y1="8" x2="86" y2="92" gradientUnits="userSpaceOnUse">
      <stop stop-color="#f5f3ff"/>
      <stop offset="1" stop-color="#ddd6fe"/>
    </linearGradient>
    <linearGradient id="coat" x1="23" y1="56" x2="73" y2="94" gradientUnits="userSpaceOnUse">
      <stop stop-color="#ffffff"/>
      <stop offset="1" stop-color="#ede9fe"/>
    </linearGradient>
  </defs>
  <rect width="96" height="96" rx="24" fill="url(#bg)"/>
  <path d="M27 41c0-16 10-26 22-26 13 0 21 10 21 26v8H27v-8Z" fill="#312e81"/>
  <path d="M23 89c2-20 13-31 25-31s23 11 25 31H23Z" fill="url(#coat)"/>
  <path d="M38 58h20l-3 13-7 6-7-6-3-13Z" fill="#d8a27f"/>
  <circle cx="48" cy="43" r="17" fill="#f1c29e"/>
  <path d="M31 38c8-14 24-18 36-4-5 3-12 5-21 4-5 0-10 0-15 0Z" fill="#312e81"/>
  <circle cx="42" cy="45" r="2" fill="#12233f"/>
  <circle cx="54" cy="45" r="2" fill="#12233f"/>
  <path d="M42 53c4 4 8 4 12 0" fill="none" stroke="#7c2d12" stroke-width="2" stroke-linecap="round"/>
  <path d="M32 71l11 16 5-10 5 10 11-16" fill="none" stroke="#c4b5fd" stroke-width="3" stroke-linecap="round" stroke-linejoin="round"/>
  <circle cx="69" cy="30" r="8" fill="#ffffff" opacity=".7"/>
</svg>
