<svg xmlns="http://www.w3.org/2000/svg" viewBox="0 0 96 96" role="img" aria-label="Doctor avatar">
  <defs>
    <linearGradient id="bg" x1="14" y1="8" x2="84" y2="92" gradientUnits="userSpaceOnUse">
      <stop stop-color="#eff6ff"/>
      <stop offset="1" stop-color="#bae6fd"/>
    </linearGradient>
    <linearGradient id="coat" x1="23" y1="56" x2="73" y2="94" gradientUnits="userSpaceOnUse">
      <stop stop-color="#ffffff"/>
      <stop offset="1" stop-color="#e0f2fe"/>
    </linearGradient>
  </defs>
  <rect width="96" height="96" rx="24" fill="url(#bg)"/>
  <path d="M27 39c1-16 10-25 22-25 14 0 22 10 22 27l-4 12H31l-4-14Z" fill="#1e293b"/>
  <path d="M23 89c2-20 13-31 25-31s23 11 25 31H23Z" fill="url(#coat)"/>
  <path d="M38 58h20l-3 13-7 6-7-6-3-13Z" fill="#c68662"/>
  <circle cx="48" cy="42" r="17" fill="#e2a47f"/>
  <path d="M31 39c8-13 23-17 35-4-2 4-5 8-9 10-7-4-16-6-26-6Z" fill="#1e293b"/>
  <circle cx="42" cy="45" r="2" fill="#12233f"/>
  <circle cx="54" cy="45" r="2" fill="#12233f"/>
  <path d="M42 53c4 3 8 3 12 0" fill="none" stroke="#7c2d12" stroke-width="2" stroke-linecap="round"/>
  <path d="M32 71l11 16 5-10 5 10 11-16" fill="none" stroke="#93c5fd" stroke-width="3" stroke-linecap="round" stroke-linejoin="round"/>
  <circle cx="69" cy="30" r="8" fill="#ffffff" opacity=".68"/>
</svg>
