<svg xmlns="http://www.w3.org/2000/svg" viewBox="0 0 64 64" role="img" aria-label="HealthCare">
  <rect width="64" height="64" rx="16" fill="#2F6BFF"/>
  <path d="M32 48c-1.2 0-2.3-.5-3.2-1.3l-9.4-8.5C15.7 34.2 14 31 14 27.5 14 21.7 18.7 17 24.5 17c3 0 5.8 1.3 7.8 3.5 2-2.2 4.8-3.5 7.8-3.5 5.8 0 10.5 4.7 10.5 10.5 0 3.5-1.7 6.7-5 10.7l-9.4 8.5c-.9.8-2 1.3-3.2 1.3Z" fill="none" stroke="#fff" stroke-width="4" stroke-linecap="round" stroke-linejoin="round"/>
  <path d="M19 31h7l3-6 5 12 4-6h7" fill="none" stroke="#fff" stroke-width="4" stroke-linecap="round" stroke-linejoin="round"/>
</svg>
